<svg id="Layer_1" data-name="Layer 1" xmlns="http://www.w3.org/2000/svg" viewBox="0 0 260 260"><path d="M224.08,116.47a14.39,14.39,0,0,0,1.74-7.38,16.5,16.5,0,0,0-16.49-16.51H169.78V90.84A17,17,0,0,0,153.7,74.77l-36.48-.87a45.85,45.85,0,0,0-33.45,13L64.66,105.18H47.28a5.22,5.22,0,0,0,0,10.43H66.83a5,5,0,0,0,3.48-1.31L91.16,94.75a34.64,34.64,0,0,1,26.06-10l36.49.87a5.94,5.94,0,0,1,6.08,5.8v.28a6.54,6.54,0,0,1-1.74,4.78,7,7,0,0,1-4.78,2.17H134.59A57.14,57.14,0,0,0,122.43,100l-3.48.86c-2.6.44-4.34,3.48-3.91,6.08s3.48,4.35,6.08,3.91l3.48-.87c1.74-.43,3.48-.43,5.21-.86C122,133,102,130.81,101.14,130.81c-2.6-.44-5.21,1.74-5.65,4.34V136a5.15,5.15,0,0,0,4.35,5.21c.43,0,31.27,3.48,40.83-32.15h12.6a16.37,16.37,0,0,0,12.16-5.21h44.31a6.08,6.08,0,0,1,0,12.16H163.26a5.22,5.22,0,0,0,0,10.43H218a6.08,6.08,0,0,1,0,12.16H158.48a5,5,0,0,0-5.21,4.78,3.09,3.09,0,0,0,0,.43,5.29,5.29,0,0,0,5.21,5.21h50.83a6.08,6.08,0,1,1,0,12.16H151.1a5.22,5.22,0,0,0,0,10.43H188a6.08,6.08,0,1,1,0,12.16H162.83a135,135,0,0,0-21.72,1.74h-.87c-15.64,2.17-57.77,8.69-67.77-15.2-.86-3-2.6-4.35-4.77-4.35H47.28a5.27,5.27,0,0,0-5.21,5.22,5,5,0,0,0,4.78,5.21,3.09,3.09,0,0,0,.43,0H64.65c14.77,27.37,59.95,20.85,77.33,18.24h.86a121.58,121.58,0,0,1,20.42-1.73h25.2A16.5,16.5,0,0,0,205,176.44v0a13.86,13.86,0,0,0-1.3-6.08h6.52a16.49,16.49,0,0,0,16.5-16.48v0a20.23,20.23,0,0,0-1.74-7.38,16.59,16.59,0,0,0,10.43-15.2c-.87-6.53-5.21-12.61-11.29-14.78Z"/></svg>