<svg id="Layer_1" data-name="Layer 1" xmlns="http://www.w3.org/2000/svg" viewBox="0 0 260 260"><path d="M216.77,114.83V220H170.52c1-3.29,3.64-7.39,2.54-9.65-1.19-2.42-5.8-3.9-9.11-4.38-7.84-1.14-15.8-1.51-23.72-2.06-11-.75-20-5.45-27.64-13.39-10-10.45-20.27-20.68-30.43-31Q71.09,148.25,60,137c-3-3.07-4.31-7.05-.42-9.53,2.09-1.32,6.15,0,9.16.76,1.36.33,2.35,2.17,3.5,3.33,6.89,7,13.81,13.94,20.67,20.95,3.49,3.58,7.5,5.58,11.51,1.49s1.89-8.1-1.69-11.53c-1.35-1.29-2.63-2.66-3.94-4Q82.58,122,66.35,105.57c-3-3.06-5.46-6.44-1.72-10.24,4-4,7.58-1.79,10.81,1.57s6.54,6.66,9.83,10q13.78,14,27.59,27.89c3.26,3.28,7.06,4,10.52.67s2.64-7.13-.58-10.45c-1.62-1.68-3.26-3.34-4.9-5Q98.24,100,78.57,80.06c-3-3-4.18-6.55-.86-9.83s6.8-2,9.78,1.06c1.31,1.34,2.64,2.65,4,4Q110.9,95,130.32,114.66c3.55,3.62,7.46,6.66,11.93,2.14,4.32-4.36,1.7-8.37-1.95-12q-18.06-18.1-35.94-36.39c-1.47-1.49-3.57-2.95-4-4.74-.54-2.39-.6-6,.81-7.39s5.06-1.31,7.46-.75c1.78.42,3.18,2.6,4.66,4.09Q137.7,84.25,162.05,109c1.31,1.33,2.61,2.68,4,4,3.38,3.21,7.14,3.82,10.52.43,3.17-3.18,2.57-6.83-.37-10-3.18-3.42-6.53-6.68-9.79-10-5.13-5.24-10.24-10.49-15.75-16.14,6-4.08,11.47-4.73,16.06-.16,12.07,12,24,24.19,35.53,36.74C208.25,120.38,210.41,121,216.77,114.83Z" style="fill:#fff"/><path d="M53.36,116.47a14.3,14.3,0,0,1-1.74-7.38A16.5,16.5,0,0,1,68.13,92.58h39.53V90.84a16.94,16.94,0,0,1,16.07-16.07l36.49-.87a45.84,45.84,0,0,1,33.45,13l19.11,18.25h17.38a5.22,5.22,0,0,1,0,10.43H210.61a4.93,4.93,0,0,1-3.48-1.31L186.28,94.75a34.65,34.65,0,0,0-26.06-10l-36.49.87a5.94,5.94,0,0,0-6.08,6.08,6.5,6.5,0,0,0,1.74,4.78,7,7,0,0,0,4.78,2.17h18.68A57.15,57.15,0,0,1,155,100l3.48.86c2.6.44,4.34,3.48,3.91,6.08s-3.48,4.35-6.08,3.91l-3.48-.87c-1.74-.43-3.48-.43-5.21-.86,7.81,23.89,27.8,21.72,28.67,21.72,2.6-.44,5.21,1.74,5.64,4.34V136a5.15,5.15,0,0,1-4.34,5.21c-.43,0-31.27,3.48-40.83-32.15h-12.6A16.4,16.4,0,0,1,112,103.87H67.7a6.08,6.08,0,0,0,0,12.16h46.47a5.22,5.22,0,1,1,0,10.43H59.44a6.08,6.08,0,1,0,0,12.16H119a5,5,0,0,1,5.22,5.21,5.28,5.28,0,0,1-5.22,5.21H68.13a6.08,6.08,0,0,0,0,12.16h58.21a5.22,5.22,0,0,1,0,10.43H89.42a6.08,6.08,0,1,0,0,12.16h25.19a135.22,135.22,0,0,1,21.72,1.74h.87c15.64,2.17,57.77,8.69,67.77-15.2.86-3,2.6-4.35,4.77-4.35h20.42a5.28,5.28,0,0,1,5.21,5.22,5,5,0,0,1-5.21,5.21H212.78c-14.77,27.37-59.94,20.85-77.32,18.24h-.86a121.55,121.55,0,0,0-20.42-1.73H89a16.5,16.5,0,0,1-16.5-16.51,13.86,13.86,0,0,1,1.3-6.08H67.26a16.49,16.49,0,0,1-16.5-16.51,20.43,20.43,0,0,1,1.73-7.38,16.56,16.56,0,0,1-10.42-15.2c.87-6.53,5.21-12.61,11.29-14.78Z"/></svg>