<svg id="Layer_1" data-name="Layer 1" xmlns="http://www.w3.org/2000/svg" viewBox="0 0 260 260"><path d="M53.36,116.47a14.39,14.39,0,0,1-1.74-7.38A16.5,16.5,0,0,1,68.11,92.58h39.55V90.84a16.94,16.94,0,0,1,16.07-16.07l36.49-.87a45.85,45.85,0,0,1,33.45,13l19.11,18.25h17.38a5.22,5.22,0,0,1,0,10.43H210.61a5,5,0,0,1-3.48-1.31L186.28,94.75a34.64,34.64,0,0,0-26.06-10l-36.49.87a5.94,5.94,0,0,0-6.08,5.8v.28a6.5,6.5,0,0,0,1.74,4.78,7,7,0,0,0,4.78,2.17h18.68A57,57,0,0,1,155,100l3.48.86c2.6.44,4.34,3.48,3.91,6.08s-3.48,4.35-6.08,3.91l-3.48-.87c-1.74-.43-3.48-.43-5.21-.86,7.81,23.89,27.8,21.72,28.67,21.72,2.6-.44,5.21,1.74,5.64,4.34V136a5.14,5.14,0,0,1-4.34,5.21c-.43,0-31.27,3.48-40.83-32.15h-12.6A16.42,16.42,0,0,1,112,103.87H67.7a6.08,6.08,0,0,0,0,12.16h46.47a5.22,5.22,0,0,1,.46,10.43,3.53,3.53,0,0,1-.46,0H59.44a6.08,6.08,0,0,0,0,12.16H119a5,5,0,0,1,5.22,4.77,3.23,3.23,0,0,1,0,.44A5.27,5.27,0,0,1,119,149H68.13a6.08,6.08,0,0,0,0,12.16h58.21a5.22,5.22,0,0,1,0,10.43H89.42a6.08,6.08,0,0,0,0,12.16h25.19a135,135,0,0,1,21.72,1.74h.87c15.64,2.17,57.77,8.69,67.77-15.2.86-3,2.6-4.35,4.77-4.35h20.42a5.27,5.27,0,0,1,5.21,5.22,5,5,0,0,1-4.78,5.21H212.78c-14.77,27.37-59.94,20.85-77.32,18.24h-.86a121.58,121.58,0,0,0-20.42-1.73H89a16.5,16.5,0,0,1-16.5-16.5h0a13.86,13.86,0,0,1,1.3-6.08H67.26a16.49,16.49,0,0,1-16.5-16.48v0a20.42,20.42,0,0,1,1.73-7.38,16.56,16.56,0,0,1-10.42-15.2c.87-6.53,5.21-12.61,11.29-14.78Z"/></svg>