<svg id="Layer_1" data-name="Layer 1" xmlns="http://www.w3.org/2000/svg" viewBox="0 0 260 260"><path d="M139.6,107.27c-5.53,11.54-14.69,16-26,17.79-3.16.51-5.89,3.68-8.81,5.63,3.41,1.84,7.23,5.72,10.15,5.13,8.62-1.74,16.89-5.24,26.86-8.56,9.19,15.24,10,33.67,9.47,54.56-16.25.45-32.45,2.42-48.23.66-7.33-.81-14.48-8.2-20.56-13.85-5-4.68-28.61-9.92-33.42-5.12-1.33,1.32-.33,7.25,1.52,8.9s6.19,1.06,9.37.74c7.34-.75,12.48,1.1,17.1,7.77,6.41,9.25,16.39,14.15,27.82,14.29,11.86.15,23.75-.38,35.6-1,14.67-.78,29.3-2.29,44-2.91,17.4-.72,23.95-8.39,21.25-25.39-.38-2.39,1.15-5.06,1.63-7.64,2.34-12.45,7.25-25.19,6-37.29-.87-8.53-3-17.22-3.74-26.21-.78-9.91-8.86-14.31-18.55-14.39-8.94-.08-16.37-.77-24.28-7.62C152.65,60.52,112.06,63.19,97.2,75A112.64,112.64,0,0,0,85,85.68C77,94.2,68.12,99.53,55.68,97.89c-2.8-.37-6.13,3.16-9.21,4.9,3.19,1.95,6.18,5,9.61,5.64,13.14,2.27,24.76-.62,33.61-11.66,2.66-3.32,6.57-5.6,9.61-8.66,10.54-10.58,22.79-12.58,37.56-11.17,34,3.25,29.41,9.28,28.78,35.11-.08,3.59.31,7.39-.75,10.7-.69,2.18-4,5.36-5.44,5-2.49-.55-6-3.3-6.31-5.48-.71-5.63.65-11.5.15-17.18-.28-3.12-2.16-8.19-4.17-8.65-5.69-1.29-14.56-3.21-17.25-.31C124.92,103.67,134.19,104.58,139.6,107.27Zm38.22,34.54v-.15c4.63,0,9.47-.81,13.83.29,2.76.7,4.8,4.24,7.17,6.5-2.28,2.36-4.39,6.52-6.87,6.75a142.29,142.29,0,0,1-26.67,0c-2.39-.23-5.55-4.31-6.11-7.08-.34-1.62,3.43-5.36,5.91-6C169.09,141.06,173.55,141.81,177.82,141.81Zm1.05,41.57c-6.57-4.3-15.73-7.67-15.63-10.73.34-10.46,10-6.24,16-6.36,5.65-.11,15-3.6,15,6.22C194.26,175.78,185.33,179,178.87,183.38ZM178,116.79c5.89,0,11.36-.77,16.44.29,3,.63,5.36,4.18,8,6.42-2.71,2.23-5.16,5.86-8.17,6.4-5.74,1-11.79.3-17.85.3C177,125.33,177.41,121.8,178,116.79Zm.18-26.62c7.23,2.07,13.35,3.61,19.21,5.82.6.22.27,6.24-.59,6.52-6,1.88-12.18,2.95-19.46,4.53C177.67,100.46,177.86,96.65,178.18,90.17Z"/></svg>