<svg id="Layer_1" data-name="Layer 1" xmlns="http://www.w3.org/2000/svg" viewBox="0 0 260 260"><path d="M120.4,107.27c5.53,11.54,14.69,16,26,17.79,3.16.51,5.89,3.68,8.81,5.63-3.41,1.84-7.23,5.72-10.15,5.13-8.62-1.74-16.89-5.24-26.86-8.56-9.19,15.24-10,33.67-9.47,54.56,16.25.45,32.45,2.42,48.23.66,7.33-.81,14.48-8.2,20.56-13.85,5.05-4.68,28.61-9.92,33.42-5.12,1.33,1.32.33,7.25-1.52,8.9s-6.19,1.06-9.37.74c-7.34-.75-12.48,1.1-17.1,7.77-6.41,9.25-16.39,14.15-27.82,14.29-11.86.15-23.75-.38-35.6-1-14.67-.78-29.3-2.29-44-2.91-17.4-.72-24-8.39-21.25-25.39.38-2.39-1.15-5.06-1.63-7.64-2.34-12.45-7.25-25.19-6-37.29.87-8.53,3-17.22,3.74-26.21.78-9.91,8.86-14.31,18.55-14.39,8.94-.08,16.37-.77,24.28-7.62,14.12-12.23,54.71-9.56,69.57,2.27A112.64,112.64,0,0,1,175,85.68c8,8.52,16.89,13.85,29.33,12.21,2.8-.37,6.13,3.16,9.21,4.9-3.19,1.95-6.18,5-9.61,5.64-13.14,2.27-24.76-.62-33.61-11.66-2.66-3.32-6.57-5.6-9.61-8.66-10.54-10.58-22.79-12.58-37.56-11.17-34,3.25-29.41,9.28-28.78,35.11.08,3.59-.31,7.39.75,10.7.69,2.18,4,5.36,5.44,5,2.49-.55,6-3.3,6.31-5.48.71-5.63-.65-11.5-.15-17.18.28-3.12,2.16-8.19,4.17-8.65,5.69-1.29,14.56-3.21,17.25-.31C135.08,103.67,125.81,104.58,120.4,107.27ZM82.18,141.81v-.15c-4.63,0-9.47-.81-13.83.29-2.76.7-4.8,4.24-7.17,6.5,2.28,2.36,4.39,6.52,6.87,6.75a142.29,142.29,0,0,0,26.67,0c2.39-.23,5.55-4.31,6.11-7.08.34-1.62-3.43-5.36-5.91-6C90.91,141.06,86.45,141.81,82.18,141.81Zm-1.05,41.57c6.57-4.3,15.73-7.67,15.63-10.73-.34-10.46-10.05-6.24-16-6.36-5.65-.11-15-3.6-15,6.22C65.74,175.78,74.67,179,81.13,183.38ZM82,116.79c-5.89,0-11.36-.77-16.44.29-3,.63-5.36,4.18-8,6.42,2.71,2.23,5.16,5.86,8.17,6.4,5.74,1,11.79.3,17.85.3C83,125.33,82.59,121.8,82,116.79Zm-.18-26.62C74.59,92.24,68.47,93.78,62.61,96c-.6.22-.27,6.24.59,6.52,6,1.88,12.18,2.95,19.46,4.53C82.33,100.46,82.14,96.65,81.82,90.17Z"/></svg>