<svg id="Layer_1" data-name="Layer 1" xmlns="http://www.w3.org/2000/svg" viewBox="0 0 260 260"><path d="M120.25,178.46c.83-13.82,2.27-26.26,1.94-38.65-.12-4.21-4.7-8.31-6.83-11.79-8.48,2.74-16.41,5.95-24.65,7.61-2.86.57-6.5-2.69-9.79-4.21,2.85-2,5.49-5.14,8.57-5.66,10.27-1.73,18.25-6.18,24-16.27-2.42-1-5.28-1.24-6-2.64-1.28-2.39-1.25-5.5-1.77-8.3,5.22,0,10.69-.8,15.57.51,2.29.62,4.5,5.26,4.89,8.31.62,4.92-1,10.15-.25,15,.38,2.47,3.86,4.47,5.94,6.68,1.84-2,5.11-4,5.29-6.13a232.81,232.81,0,0,0,.71-28.2c-.28-7.36-5.17-10.82-12.26-12.54C102.7,76.64,82,78.66,66.45,98.55c-8.57,11-20,12.59-32.39,10.93-2.84-.37-5.33-3.41-8-5.22,2.53-1.62,5.34-5,7.54-4.59,12.9,2.13,22.1-3.92,29.79-12.82,19.82-23,44.7-19,69.89-13.62,2.49.54,5.59,2,6.83,3.94,5.51,8.86,13.17,6.69,21.12,5.19,14.52-2.73,29.08-5.28,43.68-7.49,11.68-1.77,19.57,3.4,21.22,13.15,1.69,10-4,17.31-15.41,19.65-8.15,1.67-16.34,3.13-24.85,6.9,4.9,1,9.79,2,14.69,2.94,5.28,1,10.59,1.82,15.86,2.91,13.18,2.71,19.18,9.85,17.11,20.19s-10.77,14.84-23.62,12.57c-9.58-1.69-19.17-3.35-29.66-5.19-.37,11-10.45,18-9.75,30.11.44,7.62-7.6,13.94-15.69,12.13-22.25-5-44.12.73-66.15.7-15.19,0-27.09-5-37.1-16.71-2.82-3.3-10-2.63-15.07-4.31-3.64-1.22-7-3.33-10.46-5,3.41-1.74,6.69-4.59,10.25-5,10.81-1.25,20.3-.52,27.54,10.82,3.36,5.25,13,8.28,20.11,8.95C95.53,180.72,107.38,179,120.25,178.46Zm26.35-46.64c23.48,4.12,45.89,8.26,68.4,11.72,2.51.39,5.61-3.07,8.44-4.75-2-2.31-3.74-6.21-6.13-6.68-22.61-4.42-45.33-8.26-68.24-12.31Zm2.92-23.73c20.69-3.66,40.79-7,60.76-11,2.15-.44,3.55-4.63,5.3-7.08-2.5-1.62-5.24-4.94-7.45-4.61-19.52,2.92-38.94,6.48-58.61,9.89Zm-10.35,32.75-6.6,4.95c2.24,2.68,4,6.76,6.82,7.74A67.81,67.81,0,0,0,159,157.25c3.14.12,6.4-3,9.61-4.6-2.17-2.45-3.92-6.24-6.6-7.1C155.37,143.41,148.31,142.61,139.17,140.84Zm-1.6,23.21c-1.41,1.29-5.06,3.14-5.8,5.81-.47,1.7,2.91,5.84,5.34,6.7a53.34,53.34,0,0,0,16.66,3.12c2.42,0,4.89-3.21,7.34-5-1.86-2.36-3.27-5.91-5.68-6.83C150.5,166,145,165.54,137.57,164.05Z"/></svg>